<?xml version="1.0" encoding="utf-8"?>
<svg xmlns="http://www.w3.org/2000/svg" xmlns:xlink="http://www.w3.org/1999/xlink" width="600" height="400" viewBox="0 0 2400 1600">
<defs>
  <clipPath id="clip3400">
    <rect x="0" y="0" width="2000" height="2000"/>
  </clipPath>
</defs>
<defs>
  <clipPath id="clip3401">
    <rect x="0" y="0" width="2400" height="1600"/>
  </clipPath>
</defs>
<polygon clip-path="url(#clip3401)" points="
0,1600 2400,1600 2400,0 0,0 
  " fill="#ffffff" fill-opacity="1"/>
<defs>
  <clipPath id="clip3402">
    <rect x="480" y="0" width="1681" height="1600"/>
  </clipPath>
</defs>
<polygon clip-path="url(#clip3401)" points="
463.449,1559.1 2010.74,1559.1 2010.74,11.811 463.449,11.811 
  " fill="#ffffff" fill-opacity="1"/>
<defs>
  <clipPath id="clip3403">
    <rect x="463" y="11" width="1548" height="1548"/>
  </clipPath>
</defs>
<polyline clip-path="url(#clip3401)" style="stroke:#000000; stroke-width:1; stroke-opacity:1; fill:none" points="
  463.449,1559.1 2010.74,1559.1 
  "/>
<polyline clip-path="url(#clip3401)" style="stroke:#000000; stroke-width:1; stroke-opacity:1; fill:none" points="
  463.449,1559.1 463.449,11.811 
  "/>
<polyline clip-path="url(#clip3401)" style="stroke:#000000; stroke-width:1; stroke-opacity:1; fill:none" points="
  507.24,1559.1 507.24,1535.89 
  "/>
<polyline clip-path="url(#clip3401)" style="stroke:#000000; stroke-width:1; stroke-opacity:1; fill:none" points="
  872.167,1559.1 872.167,1535.89 
  "/>
<polyline clip-path="url(#clip3401)" style="stroke:#000000; stroke-width:1; stroke-opacity:1; fill:none" points="
  1237.09,1559.1 1237.09,1535.89 
  "/>
<polyline clip-path="url(#clip3401)" style="stroke:#000000; stroke-width:1; stroke-opacity:1; fill:none" points="
  1602.02,1559.1 1602.02,1535.89 
  "/>
<polyline clip-path="url(#clip3401)" style="stroke:#000000; stroke-width:1; stroke-opacity:1; fill:none" points="
  1966.95,1559.1 1966.95,1535.89 
  "/>
<polyline clip-path="url(#clip3401)" style="stroke:#000000; stroke-width:1; stroke-opacity:1; fill:none" points="
  463.449,1515.31 486.658,1515.31 
  "/>
<polyline clip-path="url(#clip3401)" style="stroke:#000000; stroke-width:1; stroke-opacity:1; fill:none" points="
  463.449,1150.38 486.658,1150.38 
  "/>
<polyline clip-path="url(#clip3401)" style="stroke:#000000; stroke-width:1; stroke-opacity:1; fill:none" points="
  463.449,785.457 486.658,785.457 
  "/>
<polyline clip-path="url(#clip3401)" style="stroke:#000000; stroke-width:1; stroke-opacity:1; fill:none" points="
  463.449,420.529 486.658,420.529 
  "/>
<polyline clip-path="url(#clip3401)" style="stroke:#000000; stroke-width:1; stroke-opacity:1; fill:none" points="
  463.449,55.6023 486.658,55.6023 
  "/>
<g clip-path="url(#clip3401)">
<text style="fill:#000000; fill-opacity:1; font-family:Arial,Helvetica Neue,Helvetica,sans-serif; font-size:36px; text-anchor:middle;" transform="rotate(0, 507.24, 1602.3)" x="507.24" y="1602.3">0.00</text>
</g>
<g clip-path="url(#clip3401)">
<text style="fill:#000000; fill-opacity:1; font-family:Arial,Helvetica Neue,Helvetica,sans-serif; font-size:36px; text-anchor:middle;" transform="rotate(0, 872.167, 1602.3)" x="872.167" y="1602.3">0.25</text>
</g>
<g clip-path="url(#clip3401)">
<text style="fill:#000000; fill-opacity:1; font-family:Arial,Helvetica Neue,Helvetica,sans-serif; font-size:36px; text-anchor:middle;" transform="rotate(0, 1237.09, 1602.3)" x="1237.09" y="1602.3">0.50</text>
</g>
<g clip-path="url(#clip3401)">
<text style="fill:#000000; fill-opacity:1; font-family:Arial,Helvetica Neue,Helvetica,sans-serif; font-size:36px; text-anchor:middle;" transform="rotate(0, 1602.02, 1602.3)" x="1602.02" y="1602.3">0.75</text>
</g>
<g clip-path="url(#clip3401)">
<text style="fill:#000000; fill-opacity:1; font-family:Arial,Helvetica Neue,Helvetica,sans-serif; font-size:36px; text-anchor:middle;" transform="rotate(0, 1966.95, 1602.3)" x="1966.95" y="1602.3">1.00</text>
</g>
<g clip-path="url(#clip3401)">
<text style="fill:#000000; fill-opacity:1; font-family:Arial,Helvetica Neue,Helvetica,sans-serif; font-size:36px; text-anchor:end;" transform="rotate(0, 439.449, 1528.31)" x="439.449" y="1528.31">0.00</text>
</g>
<g clip-path="url(#clip3401)">
<text style="fill:#000000; fill-opacity:1; font-family:Arial,Helvetica Neue,Helvetica,sans-serif; font-size:36px; text-anchor:end;" transform="rotate(0, 439.449, 1163.38)" x="439.449" y="1163.38">0.25</text>
</g>
<g clip-path="url(#clip3401)">
<text style="fill:#000000; fill-opacity:1; font-family:Arial,Helvetica Neue,Helvetica,sans-serif; font-size:36px; text-anchor:end;" transform="rotate(0, 439.449, 798.457)" x="439.449" y="798.457">0.50</text>
</g>
<g clip-path="url(#clip3401)">
<text style="fill:#000000; fill-opacity:1; font-family:Arial,Helvetica Neue,Helvetica,sans-serif; font-size:36px; text-anchor:end;" transform="rotate(0, 439.449, 433.529)" x="439.449" y="433.529">0.75</text>
</g>
<g clip-path="url(#clip3401)">
<text style="fill:#000000; fill-opacity:1; font-family:Arial,Helvetica Neue,Helvetica,sans-serif; font-size:36px; text-anchor:end;" transform="rotate(0, 439.449, 68.6023)" x="439.449" y="68.6023">1.00</text>
</g>
<polyline clip-path="url(#clip3403)" style="stroke:#009af9; stroke-width:10; stroke-opacity:1; fill:none" points="
  1966.95,1515.31 1959.67,1369.7 1938.04,1226.26 1902.71,1087.03 1854.66,953.884 1795.22,828.389 1725.9,711.802 1648.35,605.025 1564.27,508.615 1475.32,422.805 
  1383.06,347.544 1288.93,282.544 1194.16,227.333 1099.85,181.307 1006.87,143.773 915.958,113.991 827.664,91.2049 742.403,74.6696 660.469,63.667 582.047,57.5204 
  507.24,55.6023 
  "/>
<polyline clip-path="url(#clip3403)" style="stroke:#e26f46; stroke-width:10; stroke-opacity:1; fill:none" points="
  1966.95,1515.31 1966.95,55.6023 507.24,55.6023 
  "/>
<polygon clip-path="url(#clip3403)" style="fill:#000000; fill-opacity:1" points="
  1955.95,1504.31 1955.95,1526.31 1977.95,1526.31 1977.95,1504.31 1955.95,1504.31 
  "/>
<polygon clip-path="url(#clip3403)" style="fill:#e26f46; fill-opacity:1" points="
  1956.95,1505.31 1956.95,1525.31 1976.95,1525.31 1976.95,1505.31 1956.95,1505.31 
  "/>
<polygon clip-path="url(#clip3403)" style="fill:#000000; fill-opacity:1" points="
  1955.95,44.6023 1955.95,66.6023 1977.95,66.6023 1977.95,44.6023 1955.95,44.6023 
  "/>
<polygon clip-path="url(#clip3403)" style="fill:#e26f46; fill-opacity:1" points="
  1956.95,45.6023 1956.95,65.6023 1976.95,65.6023 1976.95,45.6023 1956.95,45.6023 
  "/>
<polygon clip-path="url(#clip3403)" style="fill:#000000; fill-opacity:1" points="
  496.24,44.6023 496.24,66.6023 518.24,66.6023 518.24,44.6023 496.24,44.6023 
  "/>
<polygon clip-path="url(#clip3403)" style="fill:#e26f46; fill-opacity:1" points="
  497.24,45.6023 497.24,65.6023 517.24,65.6023 517.24,45.6023 497.24,45.6023 
  "/>
<polygon clip-path="url(#clip3401)" points="
1472.03,246.531 1938.74,246.531 1938.74,110.451 1472.03,110.451 
  " fill="#ffffff" fill-opacity="1"/>
<polyline clip-path="url(#clip3401)" style="stroke:#000000; stroke-width:1; stroke-opacity:1; fill:none" points="
  1472.03,246.531 1938.74,246.531 1938.74,110.451 1472.03,110.451 1472.03,246.531 
  "/>
<polyline clip-path="url(#clip3401)" style="stroke:#009af9; stroke-width:10; stroke-opacity:1; fill:none" points="
  1496.03,155.811 1640.03,155.811 
  "/>
<g clip-path="url(#clip3401)">
<text style="fill:#000000; fill-opacity:1; font-family:Arial,Helvetica Neue,Helvetica,sans-serif; font-size:36px; text-anchor:start;" transform="rotate(0, 1664.03, 168.811)" x="1664.03" y="168.811">NURBS</text>
</g>
<polyline clip-path="url(#clip3401)" style="stroke:#e26f46; stroke-width:10; stroke-opacity:1; fill:none" points="
  1496.03,201.171 1640.03,201.171 
  "/>
<polygon clip-path="url(#clip3401)" style="fill:#000000; fill-opacity:1" points="
  1573.03,194.171 1573.03,208.171 1587.03,208.171 1587.03,194.171 1573.03,194.171 
  "/>
<polygon clip-path="url(#clip3401)" style="fill:#e26f46; fill-opacity:1" points="
  1574.03,195.171 1574.03,207.171 1586.03,207.171 1586.03,195.171 1574.03,195.171 
  "/>
<g clip-path="url(#clip3401)">
<text style="fill:#000000; fill-opacity:1; font-family:Arial,Helvetica Neue,Helvetica,sans-serif; font-size:36px; text-anchor:start;" transform="rotate(0, 1664.03, 214.171)" x="1664.03" y="214.171">Control Points</text>
</g>
</svg>
