<?xml version="1.0" encoding="utf-8"?>
<svg xmlns="http://www.w3.org/2000/svg" xmlns:xlink="http://www.w3.org/1999/xlink" width="600" height="400" viewBox="0 0 2400 1600">
<defs>
  <clipPath id="clip2400">
    <rect x="0" y="0" width="2000" height="2000"/>
  </clipPath>
</defs>
<defs>
  <clipPath id="clip2401">
    <rect x="0" y="0" width="2400" height="1600"/>
  </clipPath>
</defs>
<polygon clip-path="url(#clip2401)" points="
0,1600 2400,1600 2400,0 0,0 
  " fill="#ffffff" fill-opacity="1"/>
<defs>
  <clipPath id="clip2402">
    <rect x="480" y="0" width="1681" height="1600"/>
  </clipPath>
</defs>
<polygon clip-path="url(#clip2401)" points="
73.8014,1362.08 2380.31,1362.08 2380.31,208.828 73.8014,208.828 
  " fill="#ffffff" fill-opacity="1"/>
<defs>
  <clipPath id="clip2403">
    <rect x="73" y="208" width="2308" height="1154"/>
  </clipPath>
</defs>
<polyline clip-path="url(#clip2401)" style="stroke:#000000; stroke-width:1; stroke-opacity:1; fill:none" points="
  73.8014,1362.08 2380.31,1362.08 
  "/>
<polyline clip-path="url(#clip2401)" style="stroke:#000000; stroke-width:1; stroke-opacity:1; fill:none" points="
  73.8014,1362.08 73.8014,208.828 
  "/>
<polyline clip-path="url(#clip2401)" style="stroke:#000000; stroke-width:1; stroke-opacity:1; fill:none" points="
  139.08,1362.08 139.08,1344.79 
  "/>
<polyline clip-path="url(#clip2401)" style="stroke:#000000; stroke-width:1; stroke-opacity:1; fill:none" points="
  683.069,1362.08 683.069,1344.79 
  "/>
<polyline clip-path="url(#clip2401)" style="stroke:#000000; stroke-width:1; stroke-opacity:1; fill:none" points="
  1227.06,1362.08 1227.06,1344.79 
  "/>
<polyline clip-path="url(#clip2401)" style="stroke:#000000; stroke-width:1; stroke-opacity:1; fill:none" points="
  1771.05,1362.08 1771.05,1344.79 
  "/>
<polyline clip-path="url(#clip2401)" style="stroke:#000000; stroke-width:1; stroke-opacity:1; fill:none" points="
  2315.04,1362.08 2315.04,1344.79 
  "/>
<polyline clip-path="url(#clip2401)" style="stroke:#000000; stroke-width:1; stroke-opacity:1; fill:none" points="
  73.8014,1329.45 108.399,1329.45 
  "/>
<polyline clip-path="url(#clip2401)" style="stroke:#000000; stroke-width:1; stroke-opacity:1; fill:none" points="
  73.8014,1057.45 108.399,1057.45 
  "/>
<polyline clip-path="url(#clip2401)" style="stroke:#000000; stroke-width:1; stroke-opacity:1; fill:none" points="
  73.8014,785.457 108.399,785.457 
  "/>
<polyline clip-path="url(#clip2401)" style="stroke:#000000; stroke-width:1; stroke-opacity:1; fill:none" points="
  73.8014,513.462 108.399,513.462 
  "/>
<polyline clip-path="url(#clip2401)" style="stroke:#000000; stroke-width:1; stroke-opacity:1; fill:none" points="
  73.8014,241.468 108.399,241.468 
  "/>
<g clip-path="url(#clip2401)">
<text style="fill:#000000; fill-opacity:1; font-family:Arial,Helvetica Neue,Helvetica,sans-serif; font-size:36px; text-anchor:middle;" transform="rotate(0, 139.08, 1405.28)" x="139.08" y="1405.28">0</text>
</g>
<g clip-path="url(#clip2401)">
<text style="fill:#000000; fill-opacity:1; font-family:Arial,Helvetica Neue,Helvetica,sans-serif; font-size:36px; text-anchor:middle;" transform="rotate(0, 683.069, 1405.28)" x="683.069" y="1405.28">1</text>
</g>
<g clip-path="url(#clip2401)">
<text style="fill:#000000; fill-opacity:1; font-family:Arial,Helvetica Neue,Helvetica,sans-serif; font-size:36px; text-anchor:middle;" transform="rotate(0, 1227.06, 1405.28)" x="1227.06" y="1405.28">2</text>
</g>
<g clip-path="url(#clip2401)">
<text style="fill:#000000; fill-opacity:1; font-family:Arial,Helvetica Neue,Helvetica,sans-serif; font-size:36px; text-anchor:middle;" transform="rotate(0, 1771.05, 1405.28)" x="1771.05" y="1405.28">3</text>
</g>
<g clip-path="url(#clip2401)">
<text style="fill:#000000; fill-opacity:1; font-family:Arial,Helvetica Neue,Helvetica,sans-serif; font-size:36px; text-anchor:middle;" transform="rotate(0, 2315.04, 1405.28)" x="2315.04" y="1405.28">4</text>
</g>
<g clip-path="url(#clip2401)">
<text style="fill:#000000; fill-opacity:1; font-family:Arial,Helvetica Neue,Helvetica,sans-serif; font-size:36px; text-anchor:end;" transform="rotate(0, 49.8014, 1342.45)" x="49.8014" y="1342.45">0.0</text>
</g>
<g clip-path="url(#clip2401)">
<text style="fill:#000000; fill-opacity:1; font-family:Arial,Helvetica Neue,Helvetica,sans-serif; font-size:36px; text-anchor:end;" transform="rotate(0, 49.8014, 1070.45)" x="49.8014" y="1070.45">0.5</text>
</g>
<g clip-path="url(#clip2401)">
<text style="fill:#000000; fill-opacity:1; font-family:Arial,Helvetica Neue,Helvetica,sans-serif; font-size:36px; text-anchor:end;" transform="rotate(0, 49.8014, 798.457)" x="49.8014" y="798.457">1.0</text>
</g>
<g clip-path="url(#clip2401)">
<text style="fill:#000000; fill-opacity:1; font-family:Arial,Helvetica Neue,Helvetica,sans-serif; font-size:36px; text-anchor:end;" transform="rotate(0, 49.8014, 526.462)" x="49.8014" y="526.462">1.5</text>
</g>
<g clip-path="url(#clip2401)">
<text style="fill:#000000; fill-opacity:1; font-family:Arial,Helvetica Neue,Helvetica,sans-serif; font-size:36px; text-anchor:end;" transform="rotate(0, 49.8014, 254.468)" x="49.8014" y="254.468">2.0</text>
</g>
<polyline clip-path="url(#clip2403)" style="stroke:#009af9; stroke-width:10; stroke-opacity:1; fill:none" points="
  139.08,1329.45 294.344,1189.78 434.647,1093.35 561.352,1034.47 675.816,1007.4 779.401,1006.45 873.465,1025.9 959.37,1060.04 1038.48,1103.15 1112.14,1149.52 
  1181.73,1193.45 1248.41,1230.21 1312.65,1259.09 1374.71,1280.35 1434.86,1294.27 1493.39,1301.11 1550.55,1301.16 1606.63,1294.68 1661.89,1281.94 1716.6,1263.21 
  1771.05,1238.78 1825.26,1208.95 1878.39,1174.23 1929.35,1135.15 1977.04,1092.27 2020.38,1046.12 2058.27,997.25 2089.64,946.205 2113.4,893.529 2128.45,839.765 
  2133.71,785.457 2128.4,731.148 2113.04,677.384 2088.42,624.708 2055.37,573.663 2014.71,524.795 1967.25,478.647 1913.8,435.762 1855.18,396.686 1792.22,361.961 
  1725.71,332.132 1656.4,308.106 1584.64,292.24 1510.7,287.253 1434.86,295.866 1357.39,320.799 1278.56,364.772 1198.63,430.504 1117.9,520.715 1036.62,638.126 
  955.064,785.457 
  "/>
<polyline clip-path="url(#clip2403)" style="stroke:#e26f46; stroke-width:10; stroke-opacity:1; fill:none" stroke-dasharray="5, 10" points="
  139.08,1329.45 294.344,1189.78 434.647,1093.35 561.352,1034.47 675.816,1007.4 779.401,1006.45 873.465,1025.9 959.37,1060.04 1038.48,1103.15 1112.14,1149.52 
  1181.73,1193.45 1248.41,1230.21 1312.65,1259.09 1374.71,1280.35 1434.86,1294.27 1493.39,1301.11 1550.55,1301.16 1606.63,1294.68 1661.89,1281.94 1716.6,1263.21 
  1771.05,1238.78 1825.26,1208.95 1878.39,1174.23 1929.35,1135.15 1977.04,1092.27 2020.38,1046.12 2058.27,997.25 2089.64,946.205 2113.4,893.529 2128.45,839.765 
  2133.71,785.457 2128.4,731.148 2113.04,677.384 2088.42,624.708 2055.37,573.663 2014.71,524.795 1967.25,478.647 1913.8,435.762 1855.18,396.686 1792.22,361.961 
  1725.71,332.132 1656.4,308.106 1584.64,292.24 1510.7,287.253 1434.86,295.866 1357.39,320.799 1278.56,364.772 1198.63,430.504 1117.9,520.715 1036.62,638.126 
  955.064,785.457 
  "/>
<polyline clip-path="url(#clip2403)" style="stroke:#3da44d; stroke-width:7; stroke-opacity:1; fill:none" points="
  139.08,1329.45 683.069,785.457 1227.06,1329.45 1771.05,1329.45 2315.04,785.457 1771.05,241.468 1227.06,241.468 955.064,785.457 
  "/>
<polygon clip-path="url(#clip2403)" style="fill:#000000; fill-opacity:1" points="
  128.08,1318.45 128.08,1340.45 150.08,1340.45 150.08,1318.45 128.08,1318.45 
  "/>
<polygon clip-path="url(#clip2403)" style="fill:#3da44d; fill-opacity:1" points="
  129.08,1319.45 129.08,1339.45 149.08,1339.45 149.08,1319.45 129.08,1319.45 
  "/>
<polygon clip-path="url(#clip2403)" style="fill:#000000; fill-opacity:1" points="
  672.069,774.457 672.069,796.457 694.069,796.457 694.069,774.457 672.069,774.457 
  "/>
<polygon clip-path="url(#clip2403)" style="fill:#3da44d; fill-opacity:1" points="
  673.069,775.457 673.069,795.457 693.069,795.457 693.069,775.457 673.069,775.457 
  "/>
<polygon clip-path="url(#clip2403)" style="fill:#000000; fill-opacity:1" points="
  1216.06,1318.45 1216.06,1340.45 1238.06,1340.45 1238.06,1318.45 1216.06,1318.45 
  "/>
<polygon clip-path="url(#clip2403)" style="fill:#3da44d; fill-opacity:1" points="
  1217.06,1319.45 1217.06,1339.45 1237.06,1339.45 1237.06,1319.45 1217.06,1319.45 
  "/>
<polygon clip-path="url(#clip2403)" style="fill:#000000; fill-opacity:1" points="
  1760.05,1318.45 1760.05,1340.45 1782.05,1340.45 1782.05,1318.45 1760.05,1318.45 
  "/>
<polygon clip-path="url(#clip2403)" style="fill:#3da44d; fill-opacity:1" points="
  1761.05,1319.45 1761.05,1339.45 1781.05,1339.45 1781.05,1319.45 1761.05,1319.45 
  "/>
<polygon clip-path="url(#clip2403)" style="fill:#000000; fill-opacity:1" points="
  2304.04,774.457 2304.04,796.457 2326.04,796.457 2326.04,774.457 2304.04,774.457 
  "/>
<polygon clip-path="url(#clip2403)" style="fill:#3da44d; fill-opacity:1" points="
  2305.04,775.457 2305.04,795.457 2325.04,795.457 2325.04,775.457 2305.04,775.457 
  "/>
<polygon clip-path="url(#clip2403)" style="fill:#000000; fill-opacity:1" points="
  1760.05,230.468 1760.05,252.468 1782.05,252.468 1782.05,230.468 1760.05,230.468 
  "/>
<polygon clip-path="url(#clip2403)" style="fill:#3da44d; fill-opacity:1" points="
  1761.05,231.468 1761.05,251.468 1781.05,251.468 1781.05,231.468 1761.05,231.468 
  "/>
<polygon clip-path="url(#clip2403)" style="fill:#000000; fill-opacity:1" points="
  1216.06,230.468 1216.06,252.468 1238.06,252.468 1238.06,230.468 1216.06,230.468 
  "/>
<polygon clip-path="url(#clip2403)" style="fill:#3da44d; fill-opacity:1" points="
  1217.06,231.468 1217.06,251.468 1237.06,251.468 1237.06,231.468 1217.06,231.468 
  "/>
<polygon clip-path="url(#clip2403)" style="fill:#000000; fill-opacity:1" points="
  944.064,774.457 944.064,796.457 966.064,796.457 966.064,774.457 944.064,774.457 
  "/>
<polygon clip-path="url(#clip2403)" style="fill:#3da44d; fill-opacity:1" points="
  945.064,775.457 945.064,795.457 965.064,795.457 965.064,775.457 945.064,775.457 
  "/>
<polyline clip-path="url(#clip2403)" style="stroke:#c271d2; stroke-width:7; stroke-opacity:1; fill:none" stroke-dasharray="28, 18" points="
  1589.72,1329.45 1952.38,1148.12 2315.04,785.457 
  "/>
<circle clip-path="url(#clip2403)" style="fill:#000000; stroke:none; fill-opacity:1" cx="1589.72" cy="1329.45" r="9"/>
<circle clip-path="url(#clip2403)" style="fill:#c271d2; stroke:none; fill-opacity:1" cx="1589.72" cy="1329.45" r="9"/>
<circle clip-path="url(#clip2403)" style="fill:#000000; stroke:none; fill-opacity:1" cx="1952.38" cy="1148.12" r="9"/>
<circle clip-path="url(#clip2403)" style="fill:#c271d2; stroke:none; fill-opacity:1" cx="1952.38" cy="1148.12" r="9"/>
<circle clip-path="url(#clip2403)" style="fill:#000000; stroke:none; fill-opacity:1" cx="2315.04" cy="785.457" r="9"/>
<circle clip-path="url(#clip2403)" style="fill:#c271d2; stroke:none; fill-opacity:1" cx="2315.04" cy="785.457" r="9"/>
<polygon clip-path="url(#clip2401)" points="
1759.37,534.268 2308.31,534.268 2308.31,307.468 1759.37,307.468 
  " fill="#ffffff" fill-opacity="1"/>
<polyline clip-path="url(#clip2401)" style="stroke:#000000; stroke-width:1; stroke-opacity:1; fill:none" points="
  1759.37,534.268 2308.31,534.268 2308.31,307.468 1759.37,307.468 1759.37,534.268 
  "/>
<polyline clip-path="url(#clip2401)" style="stroke:#009af9; stroke-width:10; stroke-opacity:1; fill:none" points="
  1783.37,352.828 1927.37,352.828 
  "/>
<g clip-path="url(#clip2401)">
<text style="fill:#000000; fill-opacity:1; font-family:Arial,Helvetica Neue,Helvetica,sans-serif; font-size:36px; text-anchor:start;" transform="rotate(0, 1951.37, 365.828)" x="1951.37" y="365.828">Original Spline</text>
</g>
<polyline clip-path="url(#clip2401)" style="stroke:#e26f46; stroke-width:10; stroke-opacity:1; fill:none" stroke-dasharray="5, 10" points="
  1783.37,398.188 1927.37,398.188 
  "/>
<g clip-path="url(#clip2401)">
<text style="fill:#000000; fill-opacity:1; font-family:Arial,Helvetica Neue,Helvetica,sans-serif; font-size:36px; text-anchor:start;" transform="rotate(0, 1951.37, 411.188)" x="1951.37" y="411.188">New Spline</text>
</g>
<polyline clip-path="url(#clip2401)" style="stroke:#3da44d; stroke-width:7; stroke-opacity:1; fill:none" points="
  1783.37,443.548 1927.37,443.548 
  "/>
<polygon clip-path="url(#clip2401)" style="fill:#000000; fill-opacity:1" points="
  1860.37,436.548 1860.37,450.548 1874.37,450.548 1874.37,436.548 1860.37,436.548 
  "/>
<polygon clip-path="url(#clip2401)" style="fill:#3da44d; fill-opacity:1" points="
  1861.37,437.548 1861.37,449.548 1873.37,449.548 1873.37,437.548 1861.37,437.548 
  "/>
<g clip-path="url(#clip2401)">
<text style="fill:#000000; fill-opacity:1; font-family:Arial,Helvetica Neue,Helvetica,sans-serif; font-size:36px; text-anchor:start;" transform="rotate(0, 1951.37, 456.548)" x="1951.37" y="456.548">Original CP&apos;s</text>
</g>
<polyline clip-path="url(#clip2401)" style="stroke:#c271d2; stroke-width:7; stroke-opacity:1; fill:none" stroke-dasharray="28, 18" points="
  1783.37,488.908 1927.37,488.908 
  "/>
<circle clip-path="url(#clip2401)" style="fill:#000000; stroke:none; fill-opacity:1" cx="1867.37" cy="488.908" r="6"/>
<circle clip-path="url(#clip2401)" style="fill:#c271d2; stroke:none; fill-opacity:1" cx="1867.37" cy="488.908" r="5"/>
<g clip-path="url(#clip2401)">
<text style="fill:#000000; fill-opacity:1; font-family:Arial,Helvetica Neue,Helvetica,sans-serif; font-size:36px; text-anchor:start;" transform="rotate(0, 1951.37, 501.908)" x="1951.37" y="501.908">New Control Points</text>
</g>
</svg>
